<svg xmlns="http://www.w3.org/2000/svg" width="32" height="32" viewBox="0 0 32 32"><path fill="#1D1D1B" d="M11.067 17.305c0 1.297-.139 2.342-1.135 3.274-.892.834-1.98 1.125-3.07 1.22-.95.083-2.192-.062-2.994-.624-1.103-.793-1.314-1.969-1.314-3.465v-8.264l3.235.27v7.489c0 .4-.015.943.196 1.304.243.373.726.507 1.137.487.362-.018.815-.156 1.087-.438.408-.406.362-1.009.362-1.548v-7.065l2.496.208v7.152zm3.978-4.358l-2.996-.133v-2.58l2.996.25v2.463zm0 7.944l-2.996.246v-7.474l2.996.094v7.134zm5.971-.444l-3.022.252v-7.571l-2.178-.095v-2.485l7.333.61v2.191l-2.133-.091v7.189zm-21.016-14.314h32v19.202h-32l25.6-3.2v-12.801l-25.6-3.201z"/></svg>