<svg xmlns="http://www.w3.org/2000/svg" width="32" height="11" viewBox="0 10.25 32 11" enable-background="new 0 10.25 32 11"><path fill="#1D1D1B" d="M4.283 16.609c0 .505-.053.91-.439 1.271-.345.324-.767.438-1.188.475-.368.031-.849-.023-1.159-.242-.427-.309-.51-.766-.51-1.346v-3.21l1.254.104v2.907c0 .156-.007.367.075.508.094.146.282.195.438.189.142-.008.316-.061.422-.171.159-.157.141-.393.141-.601v-2.743l.966.081v2.778zm.381 1.491l1.16-.097v-2.771l-1.16-.036zm0-4.236v1.002l1.16.052v-.957zm3.471 3.967l-1.171.099v-2.942l-.842-.037v-.965l2.839.237v.851l-.826-.035zm-8.135-5.56h12.386v7.458h-12.386l9.908-1.245v-4.97z"/><path fill="#777" d="M25.316 17.564c.402 1.619 1.793 2.271 3.356 2.271 1.544 0 3.326-.717 3.326-2.51 0-.815-.381-1.511-1.108-1.901-.652-.337-1.402-.457-2.107-.599-.282-.064-.826-.141-.826-.532s.436-.478.738-.478c.576 0 .99.195 1.207.749l1.892-.575c-.456-1.293-1.707-1.826-2.999-1.826-.74 0-1.531.142-2.141.565-.598.424-.956 1.141-.956 1.869 0 1.771 1.661 2.151 3.063 2.424.336.063.913.15.913.606 0 .413-.588.457-.881.457-.663 0-1.163-.239-1.358-.901l-2.119.381zm-2.476-5.292h-2.412l-2.314 7.455h1.857l.457-1.468h1.988l.424 1.468h2.336l-2.336-7.455zm-2.033 4.358l.609-2.162.609 2.162h-1.218zm-3.196-3.966c-.641-.37-1.454-.392-2.183-.392h-3.043v7.455h2.315v-2.705h1.162c.717 0 1.457-.108 2.033-.576.554-.447.824-1.12.824-1.826.002-.804-.408-1.543-1.108-1.956zm-2.312 2.761h-.598v-1.445h.663c.521 0 1.086.054 1.086.717 0 .695-.63.728-1.151.728z"/></svg>