<svg xmlns="http://www.w3.org/2000/svg" width="230.203" height="164.17" viewBox="0 0 230.203 164.17"><path fill="#231F20" d="M144.403 71.47c-40.8 0-75.3 16.2-83.1 37.2l-7.5 3.601-10.2 4.5 10.2 4.5 6.6 3c.9 4.5 3.6 9 7.2 13.199l-7.5 9c-2.1-.6-3.9 0-5.1 1.5-1.5 2.101-1.5 5.101.6 6.601s5.1 1.5 6.6-.601c1.5-1.5 1.5-3.6.6-5.399l7.2-8.7c2.1 2.1 4.5 3.9 7.2 6l-3 3.6c-2.1-.6-3.9 0-5.1 1.5-1.5 2.101-1.5 5.101.6 6.601s5.1 1.5 6.6-.601c1.5-1.5 1.5-3.6.6-5.399l3.6-3.9c15.6 10.2 38.7 16.5 65.7 16.5 45.6 0 84-21.3 84-46.8s-38.701-45.902-85.8-45.902"/><path fill="#fff" d="M129.703 92.17s-81.3-76.2-18.3-89.4c63.3-12.6 18.3 89.4 18.3 89.4"/><path fill="#231F20" d="M111.703 1.27c-13.5 2.4-22.2 8.7-24.6 17.7-7.5 27.3 39.9 72 42 74.1l2.1 1.5.9-2.101c.899-2.399 27.3-62.7 9.6-84.899-6.901-6.9-16.5-9.3-30-6.3m-22.201 24.3c0-2.1 0-3.9.6-5.4 2.1-7.5 9.6-12.6 21.6-15 12-2.4 21.3-.6 26.1 5.4 3.9 5.1 5.4 12 5.4 20.1 0 21.6-11.1 50.4-14.7 58.5-7.2-8.1-39-41.1-39-63.6m24.3-13.8c-.899 0-1.5.9-1.5 2.1l15.6 78.3c0 .9.899 1.5 2.1 1.5s1.5-.899 1.5-2.1l-15.6-78.3c-.299-.9-1.199-1.5-2.1-1.5m18.901 4.2l-14.1 25.2c-.601.9 0 2.1.6 2.4.9.6 2.1 0 2.4-.6l14.1-25.2c.6-.9 0-2.1-.6-2.4-.601-.6-1.801-.6-2.4.6m-37.201 14.4c-.6.6-.6 2.1.6 2.4l24.3 19.8c.6.6 2.1.6 2.399-.6.601-.6.601-2.1-.6-2.4l-24.3-19.8c-.899-.3-1.798-.3-2.399.6"/><path fill="#fff" d="M130.302 89.17s-108-26.1-59.399-68.7c48.3-42 59.399 68.7 59.399 68.7"/><path fill="#231F20" d="M69.703 19.27c-10.5 9-14.7 18.6-12.6 27.6 6.6 27.6 70.2 43.5 73.2 43.8l2.4.601v-2.4c-.6-2.4-7.2-68.1-33.9-78.3-8.7-3.301-18.9-.301-29.1 8.699m-9 27c-.6-1.5-.6-2.4-.6-3.9 0-6.6 3.9-13.2 12-20.1 9.6-8.1 18.3-11.1 25.2-8.1 21.6 8.7 29.4 60.601 31.2 72.601-11.701-3.301-62.7-18.001-67.8-40.501"/><path d="M130.302 89.17l-52.499-60.3m19.8 21.3v-28.8m5.399 36.9l-31.199-5.1" fill="none"/><path fill="#231F20" d="M131.802 87.97l-32.7-37.2v-28.8c0-.9-.9-1.5-1.5-1.5-.9 0-1.5.9-1.5 1.5v25.2l-16.2-18.6c-.6-.6-1.5-.9-2.4 0-.6.6-.9 1.5 0 2.4l22.2 25.2-26.7-4.5c-.9 0-2.1.6-2.1 1.5s.6 2.1 1.5 2.1l30.6 5.1 26.7 30.3c.6.601 1.5.9 2.4 0 .301-.6.301-2.1-.3-2.7"/><path fill="#fff" d="M159.703 84.97c8.7 3.601 17.7.9 24.3-4.5 1.5 3.9 4.5 7.2 9 8.7 8.7 3.601 17.7-.6 21.3-9 3.601-8.7-.6-17.7-9-21.3-5.1-2.1-10.199-1.5-14.699.9-1.5-7.5-6.601-14.1-14.101-17.1-11.7-4.5-24.6.9-29.399 12.6-4.802 12 .898 25.2 12.599 29.7"/><path fill="#231F20" d="M145.302 55.27c-5.1 12.6.9 26.7 13.5 31.8 8.101 3 17.101 2.1 24.301-3.601 2.1 3.601 5.1 6 9 7.5 4.5 2.101 9.6 1.5 13.5 0 4.5-2.1 8.1-5.399 9.6-10.199 2.1-4.5 1.5-9.601 0-13.5-2.1-4.5-5.4-8.1-10.2-9.6-4.5-2.1-9.6-1.5-14.1.6-2.101-7.5-7.2-13.2-14.7-16.2-11.701-5.4-26.1.6-30.901 13.2m1.801 8.4c0-2.4.6-5.1 1.5-7.5 3.899-10.5 16.5-16.2 27.3-11.7 6.6 2.4 11.7 8.7 12.6 15.6l.601 2.4 2.1-1.5c3.9-2.4 8.7-3 13.2-.9 3.6 1.5 6.6 3.9 8.1 7.5s1.5 7.5 0 11.1c-1.5 3.601-3.899 6.601-7.5 8.101-3.6 1.5-7.5 1.5-11.1 0-3.601-1.5-6.601-3.9-8.101-7.5l-.899-2.4-2.7 2.1c-6 5.4-14.7 7.5-22.2 4.5-8.101-3.601-12.901-11.101-12.901-19.801m36.3 2.1c-.601 3.9-3.9 6.6-8.101 6-4.199-.6-6.6-3.9-6-8.1.601-3.9 3.9-6.6 8.101-6 3.3.6 6.3 4.5 6 8.1m27.599 10.2c-.6 3.9-3.899 6.601-8.1 6-4.2-.6-6.601-3.899-6-8.1.6-3.9 3.899-6.6 8.1-6s6.601 4.5 6 8.1m-204.899 9.6c-.6 0-.9.6-1.5.899-3 3-5.1 14.7-4.5 28.2 0 13.5 2.4 25.2 5.4 28.2.6.6.9.9 1.5.9 4.5 0 6.6-15 6.6-29.4-.3-13.799-2.7-28.799-7.5-28.799m0 56.4c-3-2.399-5.1-14.1-5.1-27.3s1.5-24.6 4.5-27.3c.6-.6.6-.6.9-.6 2.4 0 6 11.699 6 27.6 0 16.5-2.4 27.6-5.4 27.6-.3.6-.9.6-.9 0m13.2-46.8c-3 0-4.5 10.2-4.5 19.8 0 9 1.5 16.5 3.6 18.601.6.6.9.6 1.5.6 3 0 4.5-10.2 4.5-19.8-.6-9.6-2.1-19.201-5.1-19.201m0 37.2c-1.5-1.5-3-8.1-3.6-18.3 0-11.7 2.1-18.601 3.6-18.601s3.6 7.2 3.9 18.301c0 11.699-2.1 18.6-3.6 18.6-.3.6-.3.6-.3 0m9.6-31.2c-2.4 0-3 8.7-3 13.2 0 6 .9 11.1 2.4 12.6.6.601.6.601.9.601 2.4 0 3-8.7 3-13.2 0-6-.9-11.1-2.4-12.6-.301-.601-.9-.601-.9-.601m0 25.2c-.9-.9-2.1-5.4-2.1-12 0-8.1 1.5-12 2.1-12 .9.9 2.1 5.4 2.1 12 .3 8.1-1.2 12-2.1 12m-15-37.8c-4.5 0-6.6 15-6.6 29.399 0 14.4 2.4 28.801 7.2 28.801 4.8 0 6.6-15 6.6-29.4-.9-14.099-3.3-28.8-7.2-28.8m-5.7 29.1c0-16.5 2.4-27.6 5.4-27.6s6 11.7 6 27.6c0 16.5-2.4 27.601-5.4 27.601-2.4.299-6-11.401-6-27.601m18.299-19.5c-.6 0-.9 0-1.5.601-2.1 2.1-3.6 9.6-3 18.6 0 9 1.5 16.5 3.6 18.6.6.601.9.601 1.5.601s.9 0 1.5-.601c2.1-2.1 3.6-9.6 3-18.6 0-9-1.5-16.5-3.6-18.6-.599-.601-1.199-.601-1.5-.601m0 37.2c-1.5-1.5-3-8.7-3.6-18.3 0-10.2 1.5-16.5 3-18.3l.6-.601s.6 0 .6.601c1.5 1.5 3 8.1 3.6 18.3 0 10.2-1.5 16.5-3 18.3l-.6.6c-.299 0-.6-.6-.6-.6m9.601-31.2c-2.4 0-3 8.7-3 13.2s.9 13.2 3.6 13.2 3-8.101 3-12.601v-.6c0-6-.9-11.1-2.4-12.6-.9-.599-.9-.599-1.2-.599m-2.101 13.2c0-8.1 1.5-12 2.1-12 .9.9 2.1 5.4 2.1 12 0 7.5-1.5 12-2.1 12s-2.1-4.5-2.1-12"/><path fill="#fff" d="M182.802 142.87c-7.199 7.2-22.8 2.1-35.399-10.5-12.601-12.6-17.101-28.8-10.2-35.7"/><path fill="#231F20" d="M184.903 141.97l-47.4-48-1.5 1.5c-3.6 3.601-3.899 9.601-2.1 16.5 2.1 7.2 6.6 14.101 12.6 20.7 8.7 8.7 19.2 14.101 27.601 14.101 3.899 0 7.5-.9 9.6-3.601l1.199-1.2m-13.2-9.6l-9.6 9c-3.9-2.1-8.7-5.1-12-8.7l11.699-11.1 9.901 10.8zm-34.201-34.8l10.5 10.5-9.6 9.6c-4.499-8.399-5.1-15.899-.9-20.1m1.8 22.201l10.2-10.2 10.2 10.5-11.7 11.1-.6-.6c-2.999-3.3-5.999-6.601-8.1-10.8m25.2 22.799l8.7-8.7 8.1 8.1c-2.1 1.5-4.5 2.4-7.5 2.4s-6.3-.3-9.3-1.8"/></svg>